<?xml version="1.0" standalone="no"?>
<!DOCTYPE svg PUBLIC "-//W3C//DTD SVG 20010904//EN"
 "http://www.w3.org/TR/2001/REC-SVG-20010904/DTD/svg10.dtd">
<svg version="1.0" xmlns="http://www.w3.org/2000/svg"
 width="278.000000pt" height="275.000000pt" viewBox="0 0 278.000000 275.000000"
 preserveAspectRatio="xMidYMid meet">

<g transform="translate(0.000000,275.000000) scale(0.100000,-0.100000)"
fill="#000000" stroke="none">
<path d="M40 2710 c0 -3 -1 -614 -3 -1357 l-2 -1353 693 0 692 0 0 150 0 150
-156 0 c-143 0 -155 -1 -152 -18 3 -15 19 -17 136 -20 l132 -3 0 -114 0 -115
-250 0 -250 0 0 250 0 250 135 0 135 0 0 135 0 135 655 0 655 0 0 -250 0 -250
-136 0 c-124 0 -135 -2 -132 -18 3 -15 19 -17 153 -19 l150 -3 0 290 0 290
-265 -1 -265 -1 -3 137 c-3 136 -3 137 -25 131 -12 -3 -82 -6 -154 -6 -112 0
-133 -2 -133 -15 0 -13 22 -15 135 -15 l135 0 0 -117 0 -118 -250 0 -250 0 0
139 0 138 -22 -6 c-13 -3 -83 -6 -155 -6 -112 0 -133 -2 -133 -15 0 -13 22
-15 135 -15 l135 0 0 -117 0 -118 -267 0 c-232 0 -268 -2 -268 -15 0 -12 23
-15 133 -18 l132 -3 0 -114 0 -115 -385 0 -385 0 0 385 0 385 135 0 c113 0
135 2 135 15 0 13 -24 15 -152 15 l-153 0 0 -555 0 -554 150 2 c134 2 150 4
153 20 3 15 -8 17 -132 17 l-136 0 0 115 0 115 250 0 250 0 0 -250 0 -250
-385 0 -385 0 0 789 0 790 385 0 384 1 3 -237 c2 -131 1 -246 -1 -257 -4 -17
-14 -18 -135 -14 l-131 3 2 -150 c2 -124 5 -151 18 -153 13 -3 15 16 15 132
l0 136 135 0 135 0 0 135 0 135 805 0 c709 0 805 2 805 15 0 13 -96 15 -805
15 l-805 0 0 250 0 249 132 3 c117 3 133 5 136 21 3 16 -9 17 -153 17 l-156 0
1 -47 c1 -27 1 -87 1 -135 l-1 -88 -250 0 -250 0 0 385 0 385 135 0 c113 0
135 2 135 15 0 8 -3 15 -7 15 -5 1 -73 2 -153 3 l-145 2 3 -402 3 -403 -120 0
-121 0 0 520 0 520 520 0 520 0 0 -135 c0 -128 1 -135 20 -135 19 0 20 7 20
153 l0 152 -555 0 c-305 0 -555 -2 -555 -5z"/>
<path d="M1523 2712 c-118 -2 -143 -5 -143 -17 0 -13 23 -15 135 -15 l136 0
-3 -117 -3 -118 -133 0 -132 0 0 -132 0 -133 -250 0 -250 0 0 129 c0 104 -3
130 -15 134 -8 4 -17 2 -19 -2 -3 -4 -4 -65 -3 -135 l2 -126 -139 0 -139 0 7
-31 c3 -17 6 -87 6 -155 0 -104 2 -124 15 -124 13 0 15 22 15 135 l0 135 385
0 385 0 0 -250 0 -250 -135 0 c-113 0 -135 -2 -135 -15 0 -13 20 -15 124 -15
68 0 138 -3 155 -6 l31 -6 0 406 0 406 135 0 135 0 0 135 0 135 385 0 385 0 0
-135 c0 -113 2 -135 15 -135 13 0 15 22 15 135 l0 135 120 0 120 0 0 -385 0
-385 -135 0 c-128 0 -135 -1 -135 -20 0 -19 7 -20 135 -20 l135 0 0 -115 0
-115 -255 0 -255 0 0 250 0 250 135 0 c128 0 135 1 135 20 0 19 -7 20 -136 20
l-136 0 4 130 c3 126 0 140 -28 140 -2 0 -4 -182 -4 -405 l0 -405 -250 0 -250
0 0 250 0 250 115 0 114 0 3 -132 c3 -110 6 -133 18 -133 13 0 15 38 15 284 0
263 -1 284 -17 287 -16 2 -18 -10 -18 -132 l0 -134 -135 0 -135 0 0 -287 0
-288 540 3 540 2 0 -255 0 -255 -270 0 c-233 0 -270 -2 -270 -15 0 -13 37 -15
270 -15 l270 0 0 -520 0 -520 -385 0 -385 0 0 135 c0 128 -1 135 -20 135 -19
0 -20 -7 -20 -135 l0 -135 -115 0 -115 0 0 250 0 250 268 2 c229 3 267 5 267
18 0 13 -55 15 -422 18 -418 2 -423 2 -423 -18 0 -19 6 -20 135 -20 l135 0 0
-265 0 -265 558 0 557 0 -2 1356 -2 1355 -548 2 c-301 1 -612 1 -690 -1z"/>
</g>
</svg>
